<?xml version="1.0" encoding="utf-8" standalone="no"?>
<!DOCTYPE svg PUBLIC "-//W3C//DTD SVG 1.1//EN"
  "http://www.w3.org/Graphics/SVG/1.1/DTD/svg11.dtd">
<svg xmlns:xlink="http://www.w3.org/1999/xlink" width="288pt" height="288pt" viewBox="0 0 288 288" xmlns="http://www.w3.org/2000/svg" version="1.1">
 <metadata>
  <rdf:RDF xmlns:dc="http://purl.org/dc/elements/1.1/" xmlns:cc="http://creativecommons.org/ns#" xmlns:rdf="http://www.w3.org/1999/02/22-rdf-syntax-ns#">
   <cc:Work>
    <dc:type rdf:resource="http://purl.org/dc/dcmitype/StillImage"/>
    <dc:date>2026-04-22T21:04:24.044508</dc:date>
    <dc:format>image/svg+xml</dc:format>
    <dc:creator>
     <cc:Agent>
      <dc:title>Matplotlib v3.10.8, https://matplotlib.org/</dc:title>
     </cc:Agent>
    </dc:creator>
   </cc:Work>
  </rdf:RDF>
 </metadata>
 <defs>
  <style type="text/css">*{stroke-linejoin: round; stroke-linecap: butt}</style>
 </defs>
 <g id="figure_1">
  <g id="patch_1">
   <path d="M 0 288 
L 288 288 
L 288 0 
L 0 0 
L 0 288 
z
" style="fill: none; opacity: 0"/>
  </g>
  <g id="axes_1">
   <g id="line2d_1">
    <path d="M 0.035165 244.8 
L 83.868132 244.90865 
L 90.61978 245.154547 
L 95.261538 245.536817 
L 98.918681 246.051169 
L 102.153846 246.731057 
L 104.967033 247.54338 
L 107.63956 248.543922 
L 110.171429 249.725257 
L 112.703297 251.15241 
L 115.235165 252.832589 
L 117.907692 254.871932 
L 120.861538 257.405918 
L 124.8 261.105364 
L 131.410989 267.351694 
L 134.083516 269.545136 
L 136.334066 271.103287 
L 138.303297 272.1934 
L 140.131868 272.942836 
L 141.81978 273.389731 
L 143.367033 273.582419 
L 144.914286 273.563092 
L 146.461538 273.332176 
L 148.149451 272.845049 
L 149.837363 272.124902 
L 151.665934 271.103287 
L 153.775824 269.651136 
L 156.167033 267.7182 
L 159.261538 264.904566 
L 169.389011 255.450715 
L 172.202198 253.239892 
L 174.874725 251.414871 
L 177.406593 249.945693 
L 179.938462 248.724405 
L 182.610989 247.685657 
L 185.424176 246.838661 
L 188.518681 246.152393 
L 191.894505 245.635637 
L 195.973626 245.245648 
L 201.178022 244.985468 
L 208.914286 244.843175 
L 226.778022 244.800736 
L 287.964835 244.8 
L 287.964835 244.8 
" clip-path="url(#p8e6133525b)" style="fill: none; stroke: #1a3a63; stroke-width: 0.8; stroke-linecap: round"/>
   </g>
   <g id="line2d_2">
    <path d="M 0.035165 43.195679 
L 14.663736 43.071837 
L 20.571429 42.803928 
L 24.931868 42.385326 
L 28.589011 41.811196 
L 31.964835 41.051703 
L 35.2 40.09313 
L 38.575824 38.856023 
L 42.514286 37.16589 
L 52.21978 32.879477 
L 55.032967 31.945797 
L 57.564835 31.334286 
L 59.956044 30.985456 
L 62.347253 30.870211 
L 64.738462 30.98417 
L 67.27033 31.333925 
L 70.083516 31.955891 
L 73.459341 32.942415 
L 78.523077 34.686741 
L 88.791209 38.250438 
L 95.261538 40.235801 
L 100.465934 41.618385 
L 104.404396 42.452149 
L 107.78022 42.945721 
L 110.734066 43.160849 
L 113.547253 43.147639 
L 116.36044 42.907923 
L 119.173626 42.445624 
L 122.268132 41.708375 
L 126.065934 40.560973 
L 135.912088 37.463102 
L 138.865934 36.836896 
L 141.538462 36.493092 
L 144.07033 36.38806 
L 146.602198 36.505372 
L 149.274725 36.8612 
L 152.087912 37.463102 
L 155.463736 38.42123 
L 161.934066 40.560973 
L 166.153846 41.821255 
L 169.389011 42.555056 
L 172.202198 42.97407 
L 175.015385 43.168202 
L 177.828571 43.137221 
L 180.782418 42.880466 
L 184.017582 42.374602 
L 187.815385 41.550553 
L 192.597802 40.276145 
L 198.786813 38.386996 
L 205.679121 36.045769 
L 216.087912 32.464142 
L 219.323077 31.617604 
L 221.995604 31.13148 
L 224.527473 30.896113 
L 226.918681 30.902041 
L 229.30989 31.141369 
L 231.701099 31.610395 
L 234.232967 32.336038 
L 237.186813 33.427799 
L 241.125275 35.151807 
L 249.424176 38.856023 
L 252.940659 40.139568 
L 256.175824 41.088171 
L 259.410989 41.811196 
L 262.927473 42.367447 
L 266.865934 42.762993 
L 271.789011 43.024853 
L 278.962637 43.162555 
L 287.964835 43.195679 
L 287.964835 43.195679 
" clip-path="url(#p8e6133525b)" style="fill: none; stroke: #1a3a63; stroke-width: 0.8; stroke-linecap: round"/>
   </g>
   <g id="line2d_3">
    <path d="M 108.881367 244.8 
L 108.75446 242.231847 
L 108.362701 239.663694 
L 107.712917 237.095541 
L 106.815791 234.527389 
L 105.684941 231.959236 
L 104.335884 229.391083 
L 102.785054 226.82293 
L 100.116521 222.970701 
L 97.084428 219.118471 
L 93.737551 215.266242 
L 90.119738 211.414013 
L 84.942979 206.277707 
L 79.44334 201.141401 
L 72.248487 194.721019 
L 51.844137 176.743949 
L 46.493884 171.607643 
L 42.800424 167.755414 
L 39.469487 163.903185 
L 37.493537 161.335032 
L 35.741227 158.766879 
L 34.227546 156.198726 
L 32.954705 153.630573 
L 31.912105 151.06242 
L 31.079866 148.494268 
L 30.433421 145.926115 
L 29.756622 142.073885 
L 29.361593 138.221656 
L 29.182435 134.369427 
L 29.191201 129.233121 
L 29.477047 122.812739 
L 30.071629 115.10828 
L 31.232737 103.551592 
L 34.69971 72.733758 
L 35.717024 65.029299 
L 37.525305 52.188535 
L 37.938227 47.052229 
L 38.076327 43.2 
L 38.076327 43.2 
" clip-path="url(#p8e6133525b)" style="fill: none; stroke: #6a3a9e; stroke-opacity: 0.95; stroke-linecap: round"/>
   </g>
   <g id="line2d_4">
    <path d="M 113.62798 244.8 
L 113.51685 242.231847 
L 113.173868 239.663694 
L 112.605204 237.095541 
L 111.820447 234.527389 
L 110.831703 231.959236 
L 109.652609 229.391083 
L 108.297416 226.82293 
L 105.965192 222.970701 
L 103.313112 219.118471 
L 100.380948 215.266242 
L 97.203301 211.414013 
L 92.636394 206.277707 
L 87.750425 201.141401 
L 81.286374 194.721019 
L 73.172125 187.016561 
L 56.824349 171.607643 
L 51.72928 166.471338 
L 48.165998 162.619108 
L 44.912402 158.766879 
L 42.966309 156.198726 
L 41.235232 153.630573 
L 39.7403 151.06242 
L 38.486498 148.494268 
L 37.463205 145.926115 
L 36.649323 143.357962 
L 36.019063 140.789809 
L 35.361013 136.93758 
L 34.977876 133.08535 
L 34.804809 129.233121 
L 34.815448 124.096815 
L 35.098763 117.676433 
L 35.690164 109.971975 
L 36.719643 99.699363 
L 39.224866 77.870064 
L 40.409044 68.881529 
L 42.381412 54.756688 
L 42.833622 49.620382 
L 43.138537 43.2 
L 43.138537 43.2 
" clip-path="url(#p8e6133525b)" style="fill: none; stroke: #53459f; stroke-opacity: 0.95; stroke-linecap: round"/>
   </g>
   <g id="line2d_5">
    <path d="M 117.771195 244.8 
L 117.674329 242.231847 
L 117.375416 239.663694 
L 116.879955 237.095541 
L 116.19645 234.527389 
L 115.335564 231.959236 
L 113.737821 228.107006 
L 111.809099 224.254777 
L 109.588401 220.402548 
L 107.110159 216.550318 
L 104.403648 212.698089 
L 100.48184 207.561783 
L 96.246209 202.425478 
L 91.738841 197.289172 
L 85.784174 190.86879 
L 78.283426 183.164331 
L 56.734859 161.335032 
L 52.143338 156.198726 
L 49.023498 152.346497 
L 47.17272 149.778344 
L 45.550078 147.210191 
L 44.174377 144.642038 
L 43.042724 142.073885 
L 42.136297 139.505732 
L 41.428434 136.93758 
L 40.890797 134.369427 
L 40.34616 130.517197 
L 40.049235 126.664968 
L 39.938142 121.528662 
L 40.06078 116.392357 
L 40.437278 109.971975 
L 41.229694 100.983439 
L 42.641138 88.142675 
L 44.225455 75.301911 
L 47.154586 53.472611 
L 47.621869 47.052229 
L 47.839336 43.2 
L 47.839336 43.2 
" clip-path="url(#p8e6133525b)" style="fill: none; stroke: #3e4f9f; stroke-opacity: 0.95; stroke-linecap: round"/>
   </g>
   <g id="line2d_6">
    <path d="M 120.191407 244.8 
L 120.103059 242.231847 
L 119.830452 239.663694 
L 119.378659 237.095541 
L 118.755501 234.527389 
L 117.970752 231.959236 
L 116.514516 228.107006 
L 114.756613 224.254777 
L 112.732079 220.402548 
L 110.471485 216.550318 
L 108.000414 212.698089 
L 104.414058 207.561783 
L 100.530735 202.425478 
L 96.383538 197.289172 
L 90.874528 190.86879 
L 85.062499 184.448408 
L 77.794206 176.743949 
L 59.447385 157.482803 
L 54.917997 152.346497 
L 51.818585 148.494268 
L 49.986196 145.926115 
L 48.392642 143.357962 
L 47.05542 140.789809 
L 45.966909 138.221656 
L 45.103632 135.653503 
L 44.435859 133.08535 
L 43.736279 129.233121 
L 43.322456 125.380892 
L 43.125424 121.528662 
L 43.1117 116.392357 
L 43.375341 109.971975 
L 43.961885 102.267516 
L 45.010981 91.994904 
L 46.54501 79.15414 
L 48.031007 68.881529 
L 49.295271 59.892994 
L 49.969038 53.472611 
L 50.749008 43.2 
L 50.749008 43.2 
" clip-path="url(#p8e6133525b)" style="fill: none; stroke: #3156a0; stroke-opacity: 0.95; stroke-linecap: round"/>
   </g>
   <g id="line2d_7">
    <path d="M 120.560769 244.8 
L 120.473732 242.231847 
L 120.205173 239.663694 
L 119.760098 237.095541 
L 119.146222 234.527389 
L 117.930294 230.675159 
L 116.392717 226.82293 
L 114.569861 222.970701 
L 112.494826 219.118471 
L 110.195957 215.266242 
L 106.822529 210.129936 
L 103.136652 204.993631 
L 99.173228 199.857325 
L 94.96208 194.721019 
L 89.393713 188.300637 
L 82.348826 180.596178 
L 72.575411 170.323567 
L 61.619258 158.766879 
L 56.992811 153.630573 
L 53.743056 149.778344 
L 51.761003 147.210191 
L 49.989676 144.642038 
L 48.466545 142.073885 
L 47.201447 139.505732 
L 46.180697 136.93758 
L 45.377652 134.369427 
L 44.761687 131.801274 
L 44.125004 127.949045 
L 43.759205 124.096815 
L 43.598726 120.244586 
L 43.620694 115.10828 
L 43.914885 108.687898 
L 44.526079 100.983439 
L 45.591673 90.710828 
L 46.985628 79.15414 
L 48.477194 68.881529 
L 49.735974 59.892994 
L 50.407135 53.472611 
L 51.20608 43.2 
L 51.20608 43.2 
" clip-path="url(#p8e6133525b)" style="fill: none; stroke: #3056a0; stroke-opacity: 0.95; stroke-linecap: round"/>
   </g>
   <g id="line2d_8">
    <path d="M 122.474886 244.8 
L 122.394687 242.231847 
L 122.147241 239.663694 
L 121.737194 237.095541 
L 120.833393 233.243312 
L 119.610945 229.391083 
L 118.103659 225.538854 
L 116.344015 221.686624 
L 114.36065 217.834395 
L 111.408835 212.698089 
L 108.145744 207.561783 
L 104.604618 202.425478 
L 100.811292 197.289172 
L 95.74859 190.86879 
L 90.369449 184.448408 
L 83.569301 176.743949 
L 74.119407 166.471338 
L 62.294428 153.630573 
L 57.784338 148.494268 
L 54.667619 144.642038 
L 52.83166 142.073885 
L 51.249162 139.505732 
L 49.935625 136.93758 
L 48.877869 134.369427 
L 48.047309 131.801274 
L 47.410938 129.233121 
L 46.752742 125.380892 
L 46.37251 121.528662 
L 46.202144 117.676433 
L 46.215852 112.540127 
L 46.50672 106.119745 
L 47.121283 98.415287 
L 48.193342 88.142675 
L 49.313006 79.15414 
L 51.018499 67.597452 
L 52.055931 59.892994 
L 52.836207 52.188535 
L 53.639243 43.2 
L 53.639243 43.2 
" clip-path="url(#p8e6133525b)" style="fill: none; stroke: #2b5e9e; stroke-opacity: 0.95; stroke-linecap: round"/>
   </g>
   <g id="line2d_9">
    <path d="M 125.280286 244.8 
L 125.120227 240.947771 
L 124.635992 237.095541 
L 123.846823 233.243312 
L 122.779621 229.391083 
L 121.463816 225.538854 
L 119.927452 221.686624 
L 118.194991 217.834395 
L 115.614186 212.698089 
L 112.756484 207.561783 
L 109.647742 202.425478 
L 106.306424 197.289172 
L 101.823995 190.86879 
L 97.024507 184.448408 
L 91.935241 178.028025 
L 85.497714 170.323567 
L 77.650956 161.335032 
L 59.497641 140.789809 
L 57.504178 138.221656 
L 55.768129 135.653503 
L 54.323813 133.08535 
L 53.162821 130.517197 
L 52.253476 127.949045 
L 51.557492 125.380892 
L 51.038572 122.812739 
L 50.525269 118.96051 
L 50.258027 115.10828 
L 50.182224 109.971975 
L 50.338385 104.835669 
L 50.757564 98.415287 
L 51.607802 89.426752 
L 52.704718 80.438217 
L 56.011572 56.040764 
L 57.44185 43.2 
L 57.44185 43.2 
" clip-path="url(#p8e6133525b)" style="fill: none; stroke: #28699b; stroke-opacity: 0.95; stroke-linecap: round"/>
   </g>
   <g id="line2d_10">
    <path d="M 126.049557 244.8 
L 125.895908 240.947771 
L 125.431081 237.095541 
L 124.673585 233.243312 
L 123.64926 229.391083 
L 122.386335 225.538854 
L 120.911648 221.686624 
L 118.655748 216.550318 
L 116.108168 211.414013 
L 113.300435 206.277707 
L 110.254486 201.141401 
L 106.985674 196.005096 
L 102.603669 189.584713 
L 97.911404 183.164331 
L 92.931839 176.743949 
L 87.69651 170.323567 
L 81.141349 162.619108 
L 69.861017 149.778344 
L 59.758398 138.221656 
L 57.845898 135.653503 
L 56.221016 133.08535 
L 54.896981 130.517197 
L 53.849948 127.949045 
L 53.041228 125.380892 
L 52.431026 122.812739 
L 51.812438 118.96051 
L 51.46808 115.10828 
L 51.329289 111.256051 
L 51.380728 106.119745 
L 51.71326 99.699363 
L 52.36541 91.994904 
L 53.219312 84.290446 
L 54.463426 75.301911 
L 56.290269 62.461146 
L 57.290564 53.472611 
L 58.17593 45.768153 
L 58.545495 43.2 
L 58.545495 43.2 
" clip-path="url(#p8e6133525b)" style="fill: none; stroke: #276d99; stroke-opacity: 0.95; stroke-linecap: round"/>
   </g>
   <g id="line2d_11">
    <path d="M 127.449859 244.8 
L 127.307931 240.947771 
L 126.878591 237.095541 
L 126.17899 233.243312 
L 125.233025 229.391083 
L 124.066733 225.538854 
L 122.704779 221.686624 
L 120.620824 216.550318 
L 118.266235 211.414013 
L 115.669137 206.277707 
L 112.848487 201.141401 
L 109.816768 196.005096 
L 105.743012 189.584713 
L 101.365513 183.164331 
L 96.698162 176.743949 
L 91.760724 170.323567 
L 85.522691 162.619108 
L 77.919102 153.630573 
L 68.957577 143.357962 
L 62.119374 135.653503 
L 60.130316 133.08535 
L 58.445779 130.517197 
L 57.08194 127.949045 
L 56.010867 125.380892 
L 55.188704 122.812739 
L 54.571681 120.244586 
L 53.949946 116.392357 
L 53.607186 112.540127 
L 53.472797 108.687898 
L 53.532109 103.551592 
L 53.873618 97.13121 
L 54.546373 89.426752 
L 55.458277 81.722293 
L 57.132965 70.165605 
L 58.325004 61.17707 
L 60.204995 45.768153 
L 60.63789 43.2 
L 60.63789 43.2 
" clip-path="url(#p8e6133525b)" style="fill: none; stroke: #257497; stroke-opacity: 0.95; stroke-linecap: round"/>
   </g>
   <g id="line2d_12">
    <path d="M 128.41504 244.8 
L 128.281229 240.947771 
L 127.876459 237.095541 
L 127.216934 233.243312 
L 126.325201 229.391083 
L 125.225783 225.538854 
L 123.476449 220.402548 
L 121.444601 215.266242 
L 119.164305 210.129936 
L 116.65903 204.993631 
L 113.944035 199.857325 
L 110.269499 193.436943 
L 106.293155 187.016561 
L 102.023122 180.596178 
L 97.469123 174.175796 
L 92.64676 167.755414 
L 86.542395 160.050955 
L 79.077243 151.06242 
L 71.33211 142.073885 
L 62.230568 131.801274 
L 60.417007 129.233121 
L 58.942876 126.664968 
L 57.784821 124.096815 
L 56.896131 121.528662 
L 56.228529 118.96051 
L 55.740218 116.392357 
L 55.27179 112.540127 
L 55.046109 108.687898 
L 55.01979 103.551592 
L 55.216735 98.415287 
L 55.681206 91.994904 
L 56.340611 85.574522 
L 57.357672 77.870064 
L 59.507248 62.461146 
L 61.455652 47.052229 
L 62.153004 43.2 
L 62.153004 43.2 
" clip-path="url(#p8e6133525b)" style="fill: none; stroke: #257896; stroke-opacity: 0.95; stroke-linecap: round"/>
   </g>
   <g id="line2d_13">
    <path d="M 128.532736 244.8 
L 128.399917 240.947771 
L 127.998148 237.095541 
L 127.343519 233.243312 
L 126.458411 229.391083 
L 125.367162 225.538854 
L 123.630813 220.402548 
L 121.613997 215.266242 
L 119.350473 210.129936 
L 116.863459 204.993631 
L 114.168002 199.857325 
L 110.519377 193.436943 
L 106.570203 187.016561 
L 102.328083 180.596178 
L 97.802072 174.175796 
L 93.006884 167.755414 
L 86.932426 160.050955 
L 79.49514 151.06242 
L 71.773098 142.073885 
L 62.622284 131.801274 
L 60.770574 129.233121 
L 59.260403 126.664968 
L 58.071922 124.096815 
L 57.158759 121.528662 
L 56.471776 118.96051 
L 55.968128 116.392357 
L 55.482342 112.540127 
L 55.244147 108.687898 
L 55.206155 103.551592 
L 55.39527 98.415287 
L 55.853819 91.994904 
L 56.510647 85.574522 
L 57.526719 77.870064 
L 59.67296 62.461146 
L 61.635751 47.052229 
L 62.342363 43.2 
L 62.342363 43.2 
" clip-path="url(#p8e6133525b)" style="fill: none; stroke: #247996; stroke-opacity: 0.95; stroke-linecap: round"/>
   </g>
   <g id="line2d_14">
    <path d="M 128.877183 244.8 
L 128.74727 240.947771 
L 128.354294 237.095541 
L 127.714004 233.243312 
L 126.848299 229.391083 
L 125.780974 225.538854 
L 124.082653 220.402548 
L 122.10987 215.266242 
L 119.895488 210.129936 
L 117.462001 204.993631 
L 114.823846 199.857325 
L 111.251285 193.436943 
L 107.381986 187.016561 
L 103.222097 180.596178 
L 98.778778 174.175796 
L 94.064238 167.755414 
L 89.099505 161.335032 
L 82.860042 153.630573 
L 75.304005 144.642038 
L 70.781307 139.505732 
L 63.806944 131.801274 
L 61.841429 129.233121 
L 60.220338 126.664968 
L 58.937093 124.096815 
L 57.947504 121.528662 
L 57.200076 118.96051 
L 56.648723 116.392357 
L 56.109146 112.540127 
L 55.832302 108.687898 
L 55.758384 103.551592 
L 55.923467 98.415287 
L 56.36386 91.994904 
L 57.012661 85.574522 
L 58.025351 77.870064 
L 60.161506 62.461146 
L 61.958342 48.336306 
L 62.902748 43.2 
L 62.902748 43.2 
" clip-path="url(#p8e6133525b)" style="fill: none; stroke: #247a95; stroke-opacity: 0.95; stroke-linecap: round"/>
   </g>
   <g id="line2d_15">
    <path d="M 129.352091 244.8 
L 129.226188 240.947771 
L 128.845353 237.095541 
L 128.22486 233.243312 
L 127.38594 229.391083 
L 126.351642 225.538854 
L 124.705822 220.402548 
L 122.793847 215.266242 
L 120.647356 210.129936 
L 118.287872 204.993631 
L 115.05918 198.573248 
L 111.533355 192.152866 
L 107.717364 185.732484 
L 103.615248 179.312102 
L 99.232269 172.89172 
L 94.578668 166.471338 
L 89.673191 160.050955 
L 83.49897 152.346497 
L 76.004137 143.357962 
L 71.477365 138.221656 
L 64.438829 130.517197 
L 62.475156 127.949045 
L 60.869159 125.380892 
L 59.60681 122.812739 
L 58.638936 120.244586 
L 57.911767 117.676433 
L 57.378501 115.10828 
L 56.861994 111.256051 
L 56.603931 107.403822 
L 56.549337 102.267516 
L 56.729296 97.13121 
L 57.190036 90.710828 
L 57.867772 84.290446 
L 58.907165 76.585987 
L 60.844291 62.461146 
L 62.489495 49.620382 
L 63.412669 44.484076 
L 63.691345 43.2 
L 63.691345 43.2 
" clip-path="url(#p8e6133525b)" style="fill: none; stroke: #237d95; stroke-opacity: 0.95; stroke-linecap: round"/>
   </g>
   <g id="line2d_16">
    <path d="M 131.743268 244.8 
L 131.637657 240.947771 
L 131.318227 237.095541 
L 130.797844 233.243312 
L 130.094343 229.391083 
L 128.904705 224.254777 
L 127.465457 219.118471 
L 125.809639 213.982166 
L 123.470168 207.561783 
L 120.856168 201.141401 
L 117.980745 194.721019 
L 114.84729 188.300637 
L 111.453543 181.880255 
L 107.794837 175.459873 
L 103.866876 169.03949 
L 99.668302 162.619108 
L 95.203215 156.198726 
L 90.483661 149.778344 
L 84.544163 142.073885 
L 79.355903 135.653503 
L 75.907333 131.801274 
L 72.078971 127.949045 
L 69.529053 125.380892 
L 67.270754 122.812739 
L 65.440299 120.244586 
L 64.02889 117.676433 
L 62.96749 115.10828 
L 62.183085 112.540127 
L 61.615566 109.971975 
L 61.073016 106.119745 
L 60.805504 102.267516 
L 60.739686 98.415287 
L 60.888023 93.278981 
L 61.251864 88.142675 
L 61.946197 81.722293 
L 64.977611 58.608917 
L 65.946573 52.188535 
L 66.697019 48.336306 
L 67.639474 44.484076 
L 68.003689 43.2 
L 68.003689 43.2 
" clip-path="url(#p8e6133525b)" style="fill: none; stroke: #218791; stroke-opacity: 0.95; stroke-linecap: round"/>
   </g>
   <g id="line2d_17">
    <path d="M 132.085333 244.8 
L 131.982637 240.947771 
L 131.672026 237.095541 
L 131.166018 233.243312 
L 130.217631 228.107006 
L 128.996664 222.970701 
L 127.541851 217.834395 
L 125.882861 212.698089 
L 123.552416 206.277707 
L 120.95785 199.857325 
L 118.109211 193.436943 
L 115.0078 187.016561 
L 111.64988 180.596178 
L 108.029657 174.175796 
L 104.141843 167.755414 
L 99.98408 161.335032 
L 95.559293 154.91465 
L 90.87822 148.494268 
L 84.988611 140.789809 
L 80.897801 135.653503 
L 77.54988 131.801274 
L 73.770312 127.949045 
L 69.87759 124.096815 
L 67.639024 121.528662 
L 65.849841 118.96051 
L 64.483605 116.392357 
L 63.463357 113.824204 
L 62.714124 111.256051 
L 62.176017 108.687898 
L 61.668598 104.835669 
L 61.42833 100.983439 
L 61.385423 97.13121 
L 61.563242 91.994904 
L 61.957702 86.858599 
L 62.681481 80.438217 
L 65.905126 56.040764 
L 66.778728 50.904459 
L 67.620813 47.052229 
L 68.67771 43.2 
L 68.67771 43.2 
" clip-path="url(#p8e6133525b)" style="fill: none; stroke: #218991; stroke-opacity: 0.95; stroke-linecap: round"/>
   </g>
   <g id="line2d_18">
    <path d="M 134.779631 244.8 
L 134.637231 239.663694 
L 134.21357 234.527389 
L 133.536344 229.391083 
L 132.639443 224.254777 
L 131.25638 217.834395 
L 129.624285 211.414013 
L 127.771461 204.993631 
L 125.711903 198.573248 
L 123.449237 192.152866 
L 120.97995 185.732484 
L 118.295818 179.312102 
L 115.385753 172.89172 
L 112.237325 166.471338 
L 108.838152 160.050955 
L 105.177343 153.630573 
L 101.24614 147.210191 
L 97.039484 140.789809 
L 89.963585 130.517197 
L 87.159596 126.664968 
L 85.075792 124.096815 
L 82.662522 121.528662 
L 79.818524 118.96051 
L 75.253959 115.10828 
L 73.920825 113.824204 
L 72.752524 112.540127 
L 71.748629 111.256051 
L 70.171175 108.687898 
L 69.043977 106.119745 
L 68.245462 103.551592 
L 67.690888 100.983439 
L 67.322958 98.415287 
L 67.038887 94.563057 
L 67.00217 90.710828 
L 67.236945 85.574522 
L 67.821486 79.15414 
L 69.31864 66.313376 
L 70.220126 59.892994 
L 71.171249 54.756688 
L 72.107154 50.904459 
L 73.289751 47.052229 
L 74.734473 43.2 
L 74.734473 43.2 
" clip-path="url(#p8e6133525b)" style="fill: none; stroke: #208f87; stroke-opacity: 0.95; stroke-linecap: round"/>
   </g>
   <g id="line2d_19">
    <path d="M 135.533292 244.8 
L 135.402466 239.663694 
L 135.013246 234.527389 
L 134.391095 229.391083 
L 133.567134 224.254777 
L 132.296478 217.834395 
L 130.796794 211.414013 
L 129.093813 204.993631 
L 126.798719 197.289172 
L 124.232016 189.584713 
L 121.879069 183.164331 
L 119.321088 176.743949 
L 116.545614 170.323567 
L 113.538935 163.903185 
L 110.28723 157.482803 
L 106.777811 151.06242 
L 102.998501 144.642038 
L 98.94015 138.221656 
L 90.421472 125.380892 
L 88.550877 122.812739 
L 86.41957 120.244586 
L 83.849197 117.676433 
L 80.745358 115.10828 
L 77.479265 112.540127 
L 76.018224 111.256051 
L 74.745955 109.971975 
L 73.664719 108.687898 
L 72.755723 107.403822 
L 71.357399 104.835669 
L 70.380305 102.267516 
L 69.705587 99.699363 
L 69.255814 97.13121 
L 68.895335 93.278981 
L 68.815702 89.426752 
L 68.939449 85.574522 
L 69.312842 80.438217 
L 70.232703 71.449682 
L 71.186796 63.745223 
L 72.016871 58.608917 
L 72.829741 54.756688 
L 73.871113 50.904459 
L 75.18345 47.052229 
L 76.760204 43.2 
L 76.760204 43.2 
" clip-path="url(#p8e6133525b)" style="fill: none; stroke: #218e82; stroke-opacity: 0.95; stroke-linecap: round"/>
   </g>
   <g id="line2d_20">
    <path d="M 135.677668 244.8 
L 135.54906 239.663694 
L 135.166444 234.527389 
L 134.554851 229.391083 
L 133.744875 224.254777 
L 132.495771 217.834395 
L 131.021482 211.414013 
L 129.347254 204.993631 
L 127.090709 197.289172 
L 124.56675 189.584713 
L 122.252551 183.164331 
L 119.736114 176.743949 
L 117.004898 170.323567 
L 114.045034 163.903185 
L 110.842425 157.482803 
L 107.38394 151.06242 
L 103.656937 144.642038 
L 99.649218 138.221656 
L 91.233459 125.380892 
L 88.437062 121.528662 
L 86.216882 118.96051 
L 83.497243 116.392357 
L 80.25293 113.824204 
L 77.026793 111.256051 
L 75.649728 109.971975 
L 74.472734 108.687898 
L 73.482721 107.403822 
L 72.654897 106.119745 
L 71.386891 103.551592 
L 70.506268 100.983439 
L 69.905226 98.415287 
L 69.514002 95.847134 
L 69.222497 91.994904 
L 69.194902 88.142675 
L 69.439107 83.006369 
L 69.999361 76.585987 
L 71.148266 66.313376 
L 72.101489 59.892994 
L 72.865029 56.040764 
L 73.844715 52.188535 
L 75.090263 48.336306 
L 76.611823 44.484076 
L 77.171387 43.2 
L 77.171387 43.2 
" clip-path="url(#p8e6133525b)" style="fill: none; stroke: #228e80; stroke-opacity: 0.95; stroke-linecap: round"/>
   </g>
   <g id="line2d_21">
    <path d="M 136.309452 244.8 
L 136.190562 239.663694 
L 135.836863 234.527389 
L 135.271505 229.391083 
L 134.310084 222.970701 
L 133.111151 216.550318 
L 131.709644 210.129936 
L 129.788393 202.425478 
L 127.618391 194.721019 
L 125.197432 187.016561 
L 122.512569 179.312102 
L 120.059401 172.89172 
L 117.395441 166.471338 
L 114.50583 160.050955 
L 111.375581 153.630573 
L 107.990617 147.210191 
L 104.332926 140.789809 
L 100.400234 134.369427 
L 91.449005 120.244586 
L 89.502775 117.676433 
L 87.129603 115.10828 
L 85.706327 113.824204 
L 82.347591 111.256051 
L 78.864308 108.687898 
L 77.381036 107.403822 
L 76.130944 106.119745 
L 75.095335 104.835669 
L 74.241363 103.551592 
L 72.955866 100.983439 
L 72.082407 98.415287 
L 71.500621 95.847134 
L 71.134675 93.278981 
L 70.883479 89.426752 
L 70.88817 85.574522 
L 71.147819 80.438217 
L 71.817319 72.733758 
L 72.717464 65.029299 
L 73.547428 59.892994 
L 74.380038 56.040764 
L 75.460228 52.188535 
L 76.830824 48.336306 
L 78.479396 44.484076 
L 79.075215 43.2 
L 79.075215 43.2 
" clip-path="url(#p8e6133525b)" style="fill: none; stroke: #238e7c; stroke-opacity: 0.95; stroke-linecap: round"/>
   </g>
   <g id="line2d_22">
    <path d="M 136.38063 244.8 
L 136.262836 239.663694 
L 135.912397 234.527389 
L 135.35225 229.391083 
L 134.399692 222.970701 
L 133.211803 216.550318 
L 131.523381 208.84586 
L 129.578204 201.141401 
L 127.387023 193.436943 
L 124.945457 185.732484 
L 122.239181 178.028025 
L 119.766914 171.607643 
L 117.082379 165.187261 
L 114.170545 158.766879 
L 111.016404 152.346497 
L 107.605787 145.926115 
L 103.91842 139.505732 
L 99.164213 131.801274 
L 91.896549 120.244586 
L 89.998606 117.676433 
L 87.699977 115.10828 
L 86.322186 113.824204 
L 83.026056 111.256051 
L 79.471094 108.687898 
L 77.919153 107.403822 
L 76.604001 106.119745 
L 75.513886 104.835669 
L 74.616238 103.551592 
L 73.877302 102.267516 
L 72.766758 99.699363 
L 72.017652 97.13121 
L 71.528327 94.563057 
L 71.233586 91.994904 
L 71.0612 88.142675 
L 71.118829 84.290446 
L 71.418046 79.15414 
L 72.115024 71.449682 
L 72.882351 65.029299 
L 73.718103 59.892994 
L 74.559445 56.040764 
L 75.652196 52.188535 
L 77.03813 48.336306 
L 78.70168 44.484076 
L 79.301567 43.2 
L 79.301567 43.2 
" clip-path="url(#p8e6133525b)" style="fill: none; stroke: #238e7c; stroke-opacity: 0.95; stroke-linecap: round"/>
   </g>
   <g id="line2d_23">
    <path d="M 137.128718 244.8 
L 137.022445 239.663694 
L 136.706289 234.527389 
L 136.04803 228.107006 
L 135.14305 221.686624 
L 134.033032 215.266242 
L 132.46935 207.561783 
L 130.676149 199.857325 
L 128.659872 192.152866 
L 126.41393 184.448408 
L 123.922969 176.743949 
L 121.165719 169.03949 
L 118.646547 162.619108 
L 115.90932 156.198726 
L 112.938109 149.778344 
L 109.717112 143.357962 
L 106.218618 136.93758 
L 101.69569 129.233121 
L 97.24394 121.528662 
L 94.19571 116.392357 
L 92.397716 113.824204 
L 91.35099 112.540127 
L 90.157125 111.256051 
L 88.769677 109.971975 
L 87.145475 108.687898 
L 79.744642 103.551592 
L 78.394974 102.267516 
L 77.307838 100.983439 
L 76.432919 99.699363 
L 75.726289 98.415287 
L 74.690258 95.847134 
L 74.016046 93.278981 
L 73.595436 90.710828 
L 73.35929 88.142675 
L 73.249203 84.290446 
L 73.39402 79.15414 
L 73.844631 72.733758 
L 74.542745 66.313376 
L 75.3693 61.17707 
L 76.231569 57.324841 
L 77.371636 53.472611 
L 78.8313 49.620382 
L 80.58578 45.768153 
L 81.857465 43.2 
L 81.857465 43.2 
" clip-path="url(#p8e6133525b)" style="fill: none; stroke: #248e76; stroke-opacity: 0.95; stroke-linecap: round"/>
   </g>
   <g id="line2d_24">
    <path d="M 137.661596 244.8 
L 137.563538 239.663694 
L 137.271827 234.527389 
L 136.664472 228.107006 
L 135.829471 221.686624 
L 134.580194 213.982166 
L 133.100747 206.277707 
L 131.411101 198.573248 
L 129.514481 190.86879 
L 127.402675 183.164331 
L 125.059631 175.459873 
L 122.463827 167.755414 
L 120.089407 161.335032 
L 117.505994 154.91465 
L 114.697229 148.494268 
L 111.646639 142.073885 
L 108.322272 135.653503 
L 103.991841 127.949045 
L 100.439966 121.528662 
L 96.279291 113.824204 
L 94.638089 111.256051 
L 92.592096 108.687898 
L 91.311342 107.403822 
L 89.777261 106.119745 
L 87.936868 104.835669 
L 81.831326 100.983439 
L 80.321581 99.699363 
L 79.134319 98.415287 
L 78.199618 97.13121 
L 77.458377 95.847134 
L 76.393886 93.278981 
L 75.71602 90.710828 
L 75.299082 88.142675 
L 75.000738 84.290446 
L 74.957885 80.438217 
L 75.146987 75.301911 
L 75.545822 70.165605 
L 76.180381 65.029299 
L 76.872691 61.17707 
L 77.819711 57.324841 
L 79.084313 53.472611 
L 80.694963 49.620382 
L 82.589372 45.768153 
L 83.922376 43.2 
L 83.922376 43.2 
" clip-path="url(#p8e6133525b)" style="fill: none; stroke: #248e72; stroke-opacity: 0.95; stroke-linecap: round"/>
   </g>
   <g id="line2d_25">
    <path d="M 137.722949 244.8 
L 137.625837 239.663694 
L 137.336941 234.527389 
L 136.735449 228.107006 
L 135.908509 221.686624 
L 134.671283 213.982166 
L 133.206083 206.277707 
L 131.532664 198.573248 
L 129.654175 190.86879 
L 127.562425 183.164331 
L 125.241429 175.459873 
L 122.669741 167.755414 
L 120.317041 161.335032 
L 117.756837 154.91465 
L 114.972732 148.494268 
L 111.948273 142.073885 
L 108.651651 135.653503 
L 105.07803 129.233121 
L 100.810456 121.528662 
L 96.708606 113.824204 
L 95.119804 111.256051 
L 93.16356 108.687898 
L 91.949438 107.403822 
L 90.498765 106.119745 
L 88.746412 104.835669 
L 82.525917 100.983439 
L 80.902669 99.699363 
L 79.626862 98.415287 
L 78.626901 97.13121 
L 77.83735 95.847134 
L 77.209422 94.563057 
L 76.307735 91.994904 
L 75.739194 89.426752 
L 75.398599 86.858599 
L 75.175357 83.006369 
L 75.178557 79.15414 
L 75.409958 74.017834 
L 75.856216 68.881529 
L 76.358368 65.029299 
L 77.056623 61.17707 
L 78.014808 57.324841 
L 79.295642 53.472611 
L 80.925516 49.620382 
L 82.8368 45.768153 
L 84.176459 43.2 
L 84.176459 43.2 
" clip-path="url(#p8e6133525b)" style="fill: none; stroke: #248e72; stroke-opacity: 0.95; stroke-linecap: round"/>
   </g>
   <g id="line2d_26">
    <path d="M 138.245918 244.8 
L 138.156876 239.663694 
L 137.800189 233.243312 
L 137.204128 226.82293 
L 136.229291 219.118471 
L 135.021922 211.414013 
L 133.360136 202.425478 
L 131.441366 193.436943 
L 129.587968 185.732484 
L 127.528354 178.028025 
L 125.243484 170.323567 
L 122.709998 162.619108 
L 120.389814 156.198726 
L 117.862221 149.778344 
L 115.110955 143.357962 
L 112.112513 136.93758 
L 108.818803 130.517197 
L 102.720192 118.96051 
L 97.634571 108.687898 
L 95.959865 106.119745 
L 94.931889 104.835669 
L 93.703123 103.551592 
L 92.188108 102.267516 
L 90.287078 100.983439 
L 83.593533 97.13121 
L 82.038965 95.847134 
L 80.861667 94.563057 
L 79.958727 93.278981 
L 79.256056 91.994904 
L 78.266775 89.426752 
L 77.649449 86.858599 
L 77.275252 84.290446 
L 77.012992 80.438217 
L 76.990867 76.585987 
L 77.234276 71.449682 
L 77.6157 67.597452 
L 78.204082 63.745223 
L 79.058025 59.892994 
L 79.808891 57.324841 
L 80.725744 54.756688 
L 81.815037 52.188535 
L 83.732108 48.336306 
L 86.513955 43.2 
L 86.513955 43.2 
" clip-path="url(#p8e6133525b)" style="fill: none; stroke: #258d6f; stroke-opacity: 0.95; stroke-linecap: round"/>
   </g>
   <g id="line2d_27">
    <path d="M 138.431762 244.8 
L 138.296927 238.379618 
L 137.902275 231.959236 
L 137.283902 225.538854 
L 136.299916 217.834395 
L 135.097429 210.129936 
L 133.453104 201.141401 
L 131.560155 192.152866 
L 129.409882 183.164331 
L 127.344879 175.459873 
L 125.053847 167.755414 
L 122.512605 160.050955 
L 120.184335 153.630573 
L 117.647059 147.210191 
L 114.884378 140.789809 
L 111.862661 134.369427 
L 108.544081 127.949045 
L 104.516044 120.244586 
L 102.094724 115.10828 
L 99.089966 108.687898 
L 97.643677 106.119745 
L 96.789026 104.835669 
L 95.796182 103.551592 
L 94.604599 102.267516 
L 93.124093 100.983439 
L 91.236785 99.699363 
L 84.298811 95.847134 
L 82.703961 94.563057 
L 81.513251 93.278981 
L 80.608818 91.994904 
L 79.909545 90.710828 
L 78.930718 88.142675 
L 78.322417 85.574522 
L 77.954258 83.006369 
L 77.698335 79.15414 
L 77.687162 75.301911 
L 77.868507 71.449682 
L 78.241796 67.597452 
L 78.842205 63.745223 
L 79.729507 59.892994 
L 80.514929 57.324841 
L 81.475383 54.756688 
L 82.614351 52.188535 
L 84.60311 48.336306 
L 87.433283 43.2 
L 87.433283 43.2 
" clip-path="url(#p8e6133525b)" style="fill: none; stroke: #258d6f; stroke-opacity: 0.95; stroke-linecap: round"/>
   </g>
   <g id="line2d_28">
    <path d="M 139.047439 244.8 
L 138.927484 238.379618 
L 138.576388 231.959236 
L 137.895468 224.254777 
L 136.985188 216.550318 
L 135.685735 207.561783 
L 134.158909 198.573248 
L 132.409472 189.584713 
L 130.424864 180.596178 
L 128.518452 172.89172 
L 126.40129 165.187261 
L 124.049528 157.482803 
L 121.436521 149.778344 
L 119.039392 143.357962 
L 116.423562 136.93758 
L 114.139165 131.801274 
L 111.008665 125.380892 
L 107.840574 118.96051 
L 106.130218 115.10828 
L 104.106058 109.971975 
L 101.572605 103.551592 
L 100.309319 100.983439 
L 99.547978 99.699363 
L 98.649856 98.415287 
L 97.55063 97.13121 
L 96.142619 95.847134 
L 94.24346 94.563057 
L 91.647221 93.278981 
L 88.709814 91.994904 
L 86.374202 90.710828 
L 84.754736 89.426752 
L 83.605152 88.142675 
L 82.755908 86.858599 
L 82.110252 85.574522 
L 81.220615 83.006369 
L 80.679846 80.438217 
L 80.368906 77.870064 
L 80.209885 74.017834 
L 80.351488 70.165605 
L 80.78756 66.313376 
L 81.26131 63.745223 
L 81.904342 61.17707 
L 82.738816 58.608917 
L 83.781945 56.040764 
L 85.034051 53.472611 
L 87.221897 49.620382 
L 90.963985 43.2 
L 90.963985 43.2 
" clip-path="url(#p8e6133525b)" style="fill: none; stroke: #268d6b; stroke-opacity: 0.95; stroke-linecap: round"/>
   </g>
   <g id="line2d_29">
    <path d="M 140.672477 244.8 
L 140.556483 237.095541 
L 140.222622 229.391083 
L 139.60944 220.402548 
L 138.678258 210.129936 
L 137.38528 198.573248 
L 136.026275 188.300637 
L 134.455074 178.028025 
L 132.642993 167.755414 
L 130.829266 158.766879 
L 128.769427 149.778344 
L 126.78053 142.073885 
L 124.563646 134.369427 
L 122.503976 127.949045 
L 120.640726 122.812739 
L 115.180456 108.687898 
L 114.09389 104.835669 
L 113.239723 100.983439 
L 112.357963 95.847134 
L 111.329733 88.142675 
L 110.655906 81.722293 
L 110.414961 77.870064 
L 110.406998 75.301911 
L 110.617373 72.733758 
L 111.168987 70.165605 
L 111.615484 68.881529 
L 112.193593 67.597452 
L 112.907532 66.313376 
L 114.701104 63.745223 
L 119.821277 57.324841 
L 121.488508 54.756688 
L 122.831238 52.188535 
L 123.891115 49.620382 
L 124.722326 47.052229 
L 125.645052 43.2 
L 125.645052 43.2 
" clip-path="url(#p8e6133525b)" style="fill: none; stroke: #288d5f; stroke-opacity: 0.95; stroke-linecap: round"/>
   </g>
   <g id="line2d_30">
    <path d="M 141.948946 244.8 
L 141.851869 235.811465 
L 141.525741 225.538854 
L 140.875444 212.698089 
L 139.921899 198.573248 
L 138.735607 184.448408 
L 137.431504 171.607643 
L 136.038076 160.050955 
L 134.589656 149.778344 
L 132.90601 139.505732 
L 131.217786 130.517197 
L 129.57837 122.812739 
L 128.270581 117.676433 
L 126.685557 112.540127 
L 123.716329 103.551592 
L 122.759335 99.699363 
L 122.305935 97.13121 
L 122.012973 94.563057 
L 121.88712 91.994904 
L 121.93652 89.426752 
L 122.17282 86.858599 
L 122.610413 84.290446 
L 123.262272 81.722293 
L 124.131328 79.15414 
L 125.197749 76.585987 
L 127.6765 71.449682 
L 129.491314 67.597452 
L 131.024233 63.745223 
L 132.222927 59.892994 
L 133.124697 56.040764 
L 133.789972 52.188535 
L 134.40427 47.052229 
L 134.716872 43.2 
L 134.716872 43.2 
" clip-path="url(#p8e6133525b)" style="fill: none; stroke: #298c58; stroke-opacity: 0.95; stroke-linecap: round"/>
   </g>
   <g id="line2d_31">
    <path d="M 142.227261 244.8 
L 142.118102 234.527389 
L 141.765495 222.970701 
L 141.094485 208.84586 
L 140.126188 193.436943 
L 139.022773 179.312102 
L 137.810782 166.471338 
L 136.51361 154.91465 
L 135.162556 144.642038 
L 133.591023 134.369427 
L 131.786722 124.096815 
L 130.71907 118.96051 
L 129.395977 113.824204 
L 127.784105 108.687898 
L 125.762239 102.267516 
L 124.858843 98.415287 
L 124.461852 95.847134 
L 124.249538 93.278981 
L 124.233228 90.710828 
L 124.423342 88.142675 
L 124.82983 85.574522 
L 125.458293 83.006369 
L 126.301442 80.438217 
L 127.891185 76.585987 
L 131.319816 68.881529 
L 132.709004 65.029299 
L 133.792259 61.17707 
L 134.608387 57.324841 
L 135.212544 53.472611 
L 135.773185 48.336306 
L 136.136101 43.2 
L 136.136101 43.2 
" clip-path="url(#p8e6133525b)" style="fill: none; stroke: #2a8c56; stroke-opacity: 0.95; stroke-linecap: round"/>
   </g>
   <g id="line2d_32">
    <path d="M 143.101334 244.8 
L 142.998488 230.675159 
L 142.630917 212.698089 
L 141.989671 192.152866 
L 141.182739 172.89172 
L 140.281182 156.198726 
L 139.229413 140.789809 
L 138.043497 126.664968 
L 137.138415 117.676433 
L 136.410872 112.540127 
L 135.681425 108.687898 
L 134.172106 102.267516 
L 133.318703 98.415287 
L 132.907337 95.847134 
L 132.690298 93.278981 
L 132.70272 90.710828 
L 132.954218 88.142675 
L 133.426977 85.574522 
L 134.444423 81.722293 
L 137.062353 72.733758 
L 137.924495 68.881529 
L 138.59136 65.029299 
L 139.231828 59.892994 
L 139.745615 53.472611 
L 140.095218 45.768153 
L 140.169335 43.2 
L 140.169335 43.2 
" clip-path="url(#p8e6133525b)" style="fill: none; stroke: #2b8c50; stroke-opacity: 0.95; stroke-linecap: round"/>
   </g>
   <g id="line2d_33">
    <path d="M 144.224894 244.8 
L 144.334394 213.982166 
L 144.705093 172.89172 
L 145.219163 139.505732 
L 145.796928 115.10828 
L 146.162177 107.403822 
L 147.04492 91.994904 
L 146.933294 88.142675 
L 146.544046 83.006369 
L 145.709576 72.733758 
L 145.330697 65.029299 
L 145.070073 54.756688 
L 144.946934 43.2 
L 144.946934 43.2 
" clip-path="url(#p8e6133525b)" style="fill: none; stroke: #2c8c48; stroke-opacity: 0.95; stroke-linecap: round"/>
   </g>
   <g id="line2d_34">
    <path d="M 145.216423 244.8 
L 145.332216 231.959236 
L 145.72337 216.550318 
L 146.418809 198.573248 
L 147.340531 180.596178 
L 148.339973 165.187261 
L 149.471392 151.06242 
L 150.725812 138.221656 
L 152.218996 125.380892 
L 153.299338 117.676433 
L 154.281137 112.540127 
L 155.228893 108.687898 
L 157.981827 98.415287 
L 158.412408 95.847134 
L 158.636163 93.278981 
L 158.627859 90.710828 
L 158.377004 88.142675 
L 157.88861 85.574522 
L 157.188111 83.006369 
L 155.857495 79.15414 
L 153.518445 72.733758 
L 152.35339 68.881529 
L 151.43542 65.029299 
L 150.73776 61.17707 
L 150.075201 56.040764 
L 149.63425 50.904459 
L 149.291299 44.484076 
L 149.242671 43.2 
L 149.242671 43.2 
" clip-path="url(#p8e6133525b)" style="fill: none; stroke: #2d8b41; stroke-opacity: 0.95; stroke-linecap: round"/>
   </g>
   <g id="line2d_35">
    <path d="M 146.100345 244.8 
L 146.199754 235.811465 
L 146.533717 225.538854 
L 147.199636 212.698089 
L 148.176079 198.573248 
L 149.390832 184.448408 
L 150.726171 171.607643 
L 152.152893 160.050955 
L 153.635806 149.778344 
L 155.359346 139.505732 
L 157.087481 130.517197 
L 158.768374 122.812739 
L 160.109299 117.676433 
L 161.724459 112.540127 
L 164.699661 103.551592 
L 165.64624 99.699363 
L 166.094462 97.13121 
L 166.385702 94.563057 
L 166.514222 91.994904 
L 166.472272 89.426752 
L 166.248107 86.858599 
L 165.826623 84.290446 
L 165.193145 81.722293 
L 164.341565 79.15414 
L 163.286948 76.585987 
L 161.440375 72.733758 
L 158.943973 67.597452 
L 157.365446 63.745223 
L 156.12627 59.892994 
L 155.192838 56.040764 
L 154.504075 52.188535 
L 153.86822 47.052229 
L 153.544718 43.2 
L 153.544718 43.2 
" clip-path="url(#p8e6133525b)" style="fill: none; stroke: #338b3d; stroke-opacity: 0.95; stroke-linecap: round"/>
   </g>
   <g id="line2d_36">
    <path d="M 146.563663 244.8 
L 146.684992 235.811465 
L 147.028248 226.82293 
L 147.631877 216.550318 
L 148.519652 204.993631 
L 149.733507 192.152866 
L 151.037382 180.596178 
L 152.569914 169.03949 
L 154.158016 158.766879 
L 155.752578 149.778344 
L 157.569555 140.789809 
L 159.634045 131.801274 
L 161.291508 125.380892 
L 162.814676 120.244586 
L 164.579204 115.10828 
L 167.331482 107.403822 
L 168.45839 103.551592 
L 169.309573 99.699363 
L 169.880858 95.847134 
L 170.181773 91.994904 
L 170.202762 88.142675 
L 170.041501 85.574522 
L 169.71592 83.006369 
L 169.199356 80.438217 
L 168.465112 77.870064 
L 167.496953 75.301911 
L 166.305901 72.733758 
L 164.234877 68.881529 
L 161.490876 63.745223 
L 160.321261 61.17707 
L 159.328425 58.608917 
L 158.505241 56.040764 
L 157.544836 52.188535 
L 156.84696 48.336306 
L 156.212672 43.2 
L 156.212672 43.2 
" clip-path="url(#p8e6133525b)" style="fill: none; stroke: #378c3c; stroke-opacity: 0.95; stroke-linecap: round"/>
   </g>
   <g id="line2d_37">
    <path d="M 146.929555 244.8 
L 147.031686 237.095541 
L 147.390925 228.107006 
L 148.052065 217.834395 
L 149.040639 206.277707 
L 150.252125 194.721019 
L 151.688395 183.164331 
L 153.175335 172.89172 
L 154.891734 162.619108 
L 156.612533 153.630573 
L 158.570366 144.642038 
L 160.462036 136.93758 
L 162.572801 129.233121 
L 164.15833 124.096815 
L 165.964603 118.96051 
L 169.800895 108.687898 
L 170.944427 104.835669 
L 171.826908 100.983439 
L 172.472951 97.13121 
L 172.917643 93.278981 
L 173.176312 89.426752 
L 173.229849 85.574522 
L 173.016181 81.722293 
L 172.672997 79.15414 
L 172.120588 76.585987 
L 171.31571 74.017834 
L 170.23045 71.449682 
L 168.878366 68.881529 
L 162.928486 58.608917 
L 161.817688 56.040764 
L 160.906695 53.472611 
L 160.169999 50.904459 
L 159.329569 47.052229 
L 158.731089 43.2 
L 158.731089 43.2 
" clip-path="url(#p8e6133525b)" style="fill: none; stroke: #3e8c3a; stroke-opacity: 0.95; stroke-linecap: round"/>
   </g>
   <g id="line2d_38">
    <path d="M 147.936395 244.8 
L 148.03177 238.379618 
L 148.38665 230.675159 
L 148.961317 222.970701 
L 149.85187 213.982166 
L 151.108365 203.709554 
L 152.597553 193.436943 
L 154.325683 183.164331 
L 156.053657 174.175796 
L 158.009902 165.187261 
L 159.892589 157.482803 
L 161.989928 149.778344 
L 164.327356 142.073885 
L 166.93 134.369427 
L 169.362513 127.949045 
L 171.544038 122.812739 
L 175.437924 113.824204 
L 176.821855 109.971975 
L 177.969898 106.119745 
L 179.250537 100.983439 
L 180.825416 94.563057 
L 182.025451 90.710828 
L 183.091448 88.142675 
L 183.764647 86.858599 
L 184.586417 85.574522 
L 185.6408 84.290446 
L 187.110969 83.006369 
L 189.516469 81.722293 
L 193.96583 80.438217 
L 197.181859 79.15414 
L 198.783047 77.870064 
L 199.762724 76.585987 
L 200.414756 75.301911 
L 200.856369 74.017834 
L 201.145126 72.733758 
L 201.377087 70.165605 
L 201.233704 67.597452 
L 200.747597 65.029299 
L 199.910006 62.461146 
L 198.695648 59.892994 
L 197.093941 57.324841 
L 195.158338 54.756688 
L 189.979106 48.336306 
L 188.198329 45.768153 
L 186.663516 43.2 
L 186.663516 43.2 
" clip-path="url(#p8e6133525b)" style="fill: none; stroke: #498d38; stroke-opacity: 0.95; stroke-linecap: round"/>
   </g>
   <g id="line2d_39">
    <path d="M 148.178904 244.8 
L 148.280148 238.379618 
L 148.656865 230.675159 
L 149.266894 222.970701 
L 150.212232 213.982166 
L 151.545954 203.709554 
L 153.126493 193.436943 
L 154.716441 184.448408 
L 156.517451 175.459873 
L 158.555547 166.471338 
L 160.515831 158.766879 
L 162.698122 151.06242 
L 165.128529 143.357962 
L 167.361384 136.93758 
L 169.821802 130.517197 
L 172.015463 125.380892 
L 177.144036 113.824204 
L 178.528001 109.971975 
L 180.059641 104.835669 
L 182.204909 97.13121 
L 183.081479 94.563057 
L 184.184288 91.994904 
L 184.875368 90.710828 
L 185.712826 89.426752 
L 186.773155 88.142675 
L 188.208888 86.858599 
L 190.380285 85.574522 
L 197.53953 83.006369 
L 199.546829 81.722293 
L 200.787869 80.438217 
L 201.635371 79.15414 
L 202.242233 77.870064 
L 202.683551 76.585987 
L 203.219853 74.017834 
L 203.41786 71.449682 
L 203.343819 68.881529 
L 203.016856 66.313376 
L 202.430236 63.745223 
L 201.562911 61.17707 
L 200.392366 58.608917 
L 198.91683 56.040764 
L 197.187875 53.472611 
L 192.646895 47.052229 
L 191.089875 44.484076 
L 190.396723 43.2 
L 190.396723 43.2 
" clip-path="url(#p8e6133525b)" style="fill: none; stroke: #4d8d37; stroke-opacity: 0.95; stroke-linecap: round"/>
   </g>
   <g id="line2d_40">
    <path d="M 149.484907 244.8 
L 149.617729 238.379618 
L 150.006488 231.959236 
L 150.615625 225.538854 
L 151.58492 217.834395 
L 152.769468 210.129936 
L 154.389308 201.141401 
L 156.25417 192.152866 
L 158.372713 183.164331 
L 160.407473 175.459873 
L 162.665274 167.755414 
L 165.170131 160.050955 
L 167.465576 153.630573 
L 169.967722 147.210191 
L 172.692867 140.789809 
L 175.6738 134.369427 
L 178.95398 127.949045 
L 182.959776 120.244586 
L 185.361492 115.10828 
L 188.273879 108.687898 
L 189.634007 106.119745 
L 191.330666 103.551592 
L 192.402926 102.267516 
L 193.716936 100.983439 
L 195.384592 99.699363 
L 197.526093 98.415287 
L 202.439538 95.847134 
L 204.297178 94.563057 
L 205.671055 93.278981 
L 206.69958 91.994904 
L 207.485858 90.710828 
L 208.09683 89.426752 
L 208.954569 86.858599 
L 209.485589 84.290446 
L 209.801236 81.722293 
L 210.002574 77.870064 
L 209.968698 74.017834 
L 209.736033 70.165605 
L 209.293117 66.313376 
L 208.595306 62.461146 
L 207.956403 59.892994 
L 207.154132 57.324841 
L 206.172511 54.756688 
L 205.009641 52.188535 
L 202.987197 48.336306 
L 200.136089 43.2 
L 200.136089 43.2 
" clip-path="url(#p8e6133525b)" style="fill: none; stroke: #5f8e33; stroke-opacity: 0.95; stroke-linecap: round"/>
   </g>
   <g id="line2d_41">
    <path d="M 150.577993 244.8 
L 150.679745 239.663694 
L 150.98245 234.527389 
L 151.612697 228.107006 
L 152.479167 221.686624 
L 153.775494 213.982166 
L 155.31056 206.277707 
L 157.063532 198.573248 
L 159.030895 190.86879 
L 161.220916 183.164331 
L 163.649877 175.459873 
L 166.339572 167.755414 
L 168.798462 161.335032 
L 171.472007 154.91465 
L 174.376374 148.494268 
L 177.528109 142.073885 
L 180.959124 135.653503 
L 186.13101 126.664968 
L 190.403373 118.96051 
L 192.61279 115.10828 
L 194.316762 112.540127 
L 196.434976 109.971975 
L 197.752775 108.687898 
L 199.315659 107.403822 
L 201.156886 106.119745 
L 205.242619 103.551592 
L 207.026589 102.267516 
L 208.480465 100.983439 
L 209.637852 99.699363 
L 210.558531 98.415287 
L 211.294766 97.13121 
L 212.362036 94.563057 
L 213.048575 91.994904 
L 213.47394 89.426752 
L 213.713013 86.858599 
L 213.829818 83.006369 
L 213.698716 77.870064 
L 213.249863 71.449682 
L 212.675977 66.313376 
L 212.069432 62.461146 
L 211.248919 58.608917 
L 210.149474 54.756688 
L 208.72173 50.904459 
L 206.976597 47.052229 
L 205.035766 43.2 
L 205.035766 43.2 
" clip-path="url(#p8e6133525b)" style="fill: none; stroke: #6a8f30; stroke-opacity: 0.95; stroke-linecap: round"/>
   </g>
   <g id="line2d_42">
    <path d="M 151.195936 244.8 
L 151.307211 239.663694 
L 151.63825 234.527389 
L 152.16738 229.391083 
L 153.067194 222.970701 
L 154.189347 216.550318 
L 155.784492 208.84586 
L 157.622557 201.141401 
L 159.693715 193.436943 
L 162.002591 185.732484 
L 164.563443 178.028025 
L 167.396907 170.323567 
L 169.984092 163.903185 
L 172.79313 157.482803 
L 175.839609 151.06242 
L 179.138615 144.642038 
L 182.714072 138.221656 
L 187.335535 130.517197 
L 195.128452 117.676433 
L 197.030494 115.10828 
L 198.140492 113.824204 
L 199.404419 112.540127 
L 200.862195 111.256051 
L 204.393672 108.687898 
L 208.055423 106.119745 
L 209.565691 104.835669 
L 210.811026 103.551592 
L 211.825119 102.267516 
L 212.650183 100.983439 
L 213.87233 98.415287 
L 214.684575 95.847134 
L 215.21048 93.278981 
L 215.527204 90.710828 
L 215.720492 86.858599 
L 215.681266 83.006369 
L 215.409622 77.870064 
L 214.864896 71.449682 
L 214.102307 65.029299 
L 213.228466 59.892994 
L 212.330348 56.040764 
L 211.156653 52.188535 
L 209.673462 48.336306 
L 207.918131 44.484076 
L 207.294396 43.2 
L 207.294396 43.2 
" clip-path="url(#p8e6133525b)" style="fill: none; stroke: #75902d; stroke-opacity: 0.95; stroke-linecap: round"/>
   </g>
   <g id="line2d_43">
    <path d="M 151.754778 244.8 
L 151.874657 239.663694 
L 152.231297 234.527389 
L 152.801358 229.391083 
L 153.770776 222.970701 
L 154.979675 216.550318 
L 156.392812 210.129936 
L 158.329956 202.425478 
L 160.51781 194.721019 
L 162.958522 187.016561 
L 165.665029 179.312102 
L 168.137678 172.89172 
L 170.822412 166.471338 
L 173.734036 160.050955 
L 176.887427 153.630573 
L 180.296501 147.210191 
L 183.97913 140.789809 
L 187.934535 134.369427 
L 196.956572 120.244586 
L 198.948096 117.676433 
L 201.389703 115.10828 
L 202.852766 113.824204 
L 206.254891 111.256051 
L 209.661038 108.687898 
L 211.083755 107.403822 
L 212.278554 106.119745 
L 213.268382 104.835669 
L 214.085708 103.551592 
L 215.318669 100.983439 
L 216.157732 98.415287 
L 216.715987 95.847134 
L 217.065179 93.278981 
L 217.298996 89.426752 
L 217.282412 85.574522 
L 217.011598 80.438217 
L 216.33185 72.733758 
L 215.430001 65.029299 
L 214.605122 59.892994 
L 213.78021 56.040764 
L 212.71112 52.188535 
L 211.354132 48.336306 
L 209.71896 44.484076 
L 209.126819 43.2 
L 209.126819 43.2 
" clip-path="url(#p8e6133525b)" style="fill: none; stroke: #79902d; stroke-opacity: 0.95; stroke-linecap: round"/>
   </g>
   <g id="line2d_44">
    <path d="M 152.037561 244.8 
L 152.16179 239.663694 
L 152.531376 234.527389 
L 153.122135 229.391083 
L 154.12675 222.970701 
L 155.37951 216.550318 
L 156.84383 210.129936 
L 158.850902 202.425478 
L 161.117273 194.721019 
L 163.644808 187.016561 
L 166.446375 179.312102 
L 169.004495 172.89172 
L 171.780257 166.471338 
L 174.788177 160.050955 
L 178.042587 153.630573 
L 181.556635 147.210191 
L 185.347245 140.789809 
L 190.225408 133.08535 
L 196.882122 122.812739 
L 198.763617 120.244586 
L 200.972297 117.676433 
L 202.265249 116.392357 
L 205.324469 113.824204 
L 210.348684 109.971975 
L 211.744623 108.687898 
L 212.927335 107.403822 
L 213.914777 106.119745 
L 214.735438 104.835669 
L 215.983303 102.267516 
L 216.841579 99.699363 
L 217.420223 97.13121 
L 217.789606 94.563057 
L 218.050744 90.710828 
L 218.053973 86.858599 
L 217.792985 81.722293 
L 217.106981 74.017834 
L 216.234878 66.313376 
L 215.484925 61.17707 
L 214.755201 57.324841 
L 213.815492 53.472611 
L 212.611456 49.620382 
L 211.122113 45.768153 
L 209.992636 43.2 
L 209.992636 43.2 
" clip-path="url(#p8e6133525b)" style="fill: none; stroke: #7c902c; stroke-opacity: 0.95; stroke-linecap: round"/>
   </g>
   <g id="line2d_45">
    <path d="M 152.415168 244.8 
L 152.545203 239.663694 
L 152.932065 234.527389 
L 153.550447 229.391083 
L 154.369416 224.254777 
L 155.63238 217.834395 
L 157.122999 211.414013 
L 158.815717 204.993631 
L 161.097053 197.289172 
L 163.648504 189.584713 
L 165.987626 183.164331 
L 168.530789 176.743949 
L 171.290482 170.323567 
L 174.280475 163.903185 
L 177.51469 157.482803 
L 181.005977 151.06242 
L 184.766685 144.642038 
L 188.807093 138.221656 
L 197.288523 125.380892 
L 199.138368 122.812739 
L 201.237249 120.244586 
L 203.764151 117.676433 
L 206.83716 115.10828 
L 210.134104 112.540127 
L 211.630201 111.256051 
L 212.939106 109.971975 
L 214.053333 108.687898 
L 214.990101 107.403822 
L 216.429792 104.835669 
L 217.434632 102.267516 
L 218.128502 99.699363 
L 218.591921 97.13121 
L 218.87798 94.563057 
L 219.052023 90.710828 
L 218.995824 86.858599 
L 218.679002 81.722293 
L 217.938179 74.017834 
L 216.880834 65.029299 
L 216.1016 59.892994 
L 215.347086 56.040764 
L 214.380695 52.188535 
L 213.151997 48.336306 
L 211.648198 44.484076 
L 211.093938 43.2 
L 211.093938 43.2 
" clip-path="url(#p8e6133525b)" style="fill: none; stroke: #84912a; stroke-opacity: 0.95; stroke-linecap: round"/>
   </g>
   <g id="line2d_46">
    <path d="M 152.765505 244.8 
L 152.900922 239.663694 
L 153.303802 234.527389 
L 153.947797 229.391083 
L 154.800688 224.254777 
L 156.115929 217.834395 
L 157.66814 211.414013 
L 159.430579 204.993631 
L 161.390184 198.573248 
L 163.54386 192.152866 
L 165.895435 185.732484 
L 168.453404 179.312102 
L 171.229224 172.89172 
L 174.235937 166.471338 
L 177.486926 160.050955 
L 180.99463 153.630573 
L 184.769744 147.210191 
L 188.823625 140.789809 
L 195.690762 130.517197 
L 199.264131 125.380892 
L 201.265746 122.812739 
L 203.593747 120.244586 
L 206.397665 117.676433 
L 212.59071 112.540127 
L 213.85206 111.256051 
L 214.932356 109.971975 
L 215.846431 108.687898 
L 217.26295 106.119745 
L 218.261326 103.551592 
L 218.957403 100.983439 
L 219.428128 98.415287 
L 219.819158 94.563057 
L 219.926794 90.710828 
L 219.824779 86.858599 
L 219.46437 81.722293 
L 218.535928 72.733758 
L 217.434417 63.745223 
L 216.626474 58.608917 
L 215.844923 54.756688 
L 214.847736 50.904459 
L 213.589179 47.052229 
L 212.066004 43.2 
L 212.066004 43.2 
" clip-path="url(#p8e6133525b)" style="fill: none; stroke: #879129; stroke-opacity: 0.95; stroke-linecap: round"/>
   </g>
   <g id="line2d_47">
    <path d="M 152.948893 244.8 
L 153.087126 239.663694 
L 153.498387 234.527389 
L 154.155783 229.391083 
L 155.026422 224.254777 
L 156.369015 217.834395 
L 157.953445 211.414013 
L 159.752343 204.993631 
L 161.752277 198.573248 
L 163.949943 192.152866 
L 166.349053 185.732484 
L 168.958002 179.312102 
L 171.788116 172.89172 
L 174.852213 166.471338 
L 178.163298 160.050955 
L 181.733221 153.630573 
L 185.571938 147.210191 
L 189.688547 140.789809 
L 196.639342 130.517197 
L 200.303477 125.380892 
L 202.393754 122.812739 
L 204.845298 120.244586 
L 207.763125 117.676433 
L 212.401804 113.824204 
L 213.726659 112.540127 
L 214.876085 111.256051 
L 215.856268 109.971975 
L 217.384788 107.403822 
L 218.468751 104.835669 
L 219.230822 102.267516 
L 219.754204 99.699363 
L 220.094478 97.13121 
L 220.341241 93.278981 
L 220.345096 89.426752 
L 220.077778 84.290446 
L 219.479966 77.870064 
L 218.144883 66.313376 
L 217.229542 59.892994 
L 216.247504 54.756688 
L 215.275841 50.904459 
L 214.048729 47.052229 
L 212.557644 43.2 
L 212.557644 43.2 
" clip-path="url(#p8e6133525b)" style="fill: none; stroke: #8b9128; stroke-opacity: 0.95; stroke-linecap: round"/>
   </g>
   <g id="line2d_48">
    <path d="M 153.776777 244.8 
L 153.861196 240.947771 
L 154.237954 235.811465 
L 154.891901 230.675159 
L 155.787704 225.538854 
L 156.890902 220.402548 
L 158.519698 213.982166 
L 160.392037 207.561783 
L 162.487225 201.141401 
L 164.797047 194.721019 
L 167.321936 188.300637 
L 170.068025 181.880255 
L 173.0449 175.459873 
L 176.263794 169.03949 
L 179.735971 162.619108 
L 183.471135 156.198726 
L 187.476037 149.778344 
L 191.754217 143.357962 
L 198.080943 134.369427 
L 201.852649 129.233121 
L 203.924399 126.664968 
L 206.266449 124.096815 
L 208.97401 121.528662 
L 214.733818 116.392357 
L 216.989363 113.824204 
L 218.669443 111.256051 
L 219.88876 108.687898 
L 220.764349 106.119745 
L 221.383515 103.551592 
L 221.807264 100.983439 
L 222.165288 97.13121 
L 222.268828 93.278981 
L 222.175749 89.426752 
L 221.820453 84.290446 
L 220.993862 76.585987 
L 219.055938 61.17707 
L 218.218709 56.040764 
L 217.414606 52.188535 
L 216.397453 48.336306 
L 215.128835 44.484076 
L 214.649417 43.2 
L 214.649417 43.2 
" clip-path="url(#p8e6133525b)" style="fill: none; stroke: #969226; stroke-opacity: 0.95; stroke-linecap: round"/>
   </g>
   <g id="line2d_49">
    <path d="M 155.08763 244.8 
L 155.183267 240.947771 
L 155.472522 237.095541 
L 155.943722 233.243312 
L 156.826844 228.107006 
L 157.963799 222.970701 
L 159.318623 217.834395 
L 161.277548 211.414013 
L 163.499641 204.993631 
L 165.966645 198.573248 
L 168.672166 192.152866 
L 171.617586 185.732484 
L 174.808895 179.312102 
L 178.254154 172.89172 
L 181.961315 166.471338 
L 185.936139 160.050955 
L 190.180158 153.630573 
L 194.689062 147.210191 
L 200.388377 139.505732 
L 205.355519 133.08535 
L 207.525746 130.517197 
L 209.918399 127.949045 
L 213.942086 124.096815 
L 216.614049 121.528662 
L 218.911258 118.96051 
L 220.712567 116.392357 
L 222.065616 113.824204 
L 223.062917 111.256051 
L 223.787032 108.687898 
L 224.300985 106.119745 
L 224.775683 102.267516 
L 224.985737 98.415287 
L 224.996734 94.563057 
L 224.768694 89.426752 
L 224.321839 84.290446 
L 223.397636 76.585987 
L 220.451342 54.756688 
L 219.423896 49.620382 
L 218.419768 45.768153 
L 217.617456 43.2 
L 217.617456 43.2 
" clip-path="url(#p8e6133525b)" style="fill: none; stroke: #a59322; stroke-opacity: 0.95; stroke-linecap: round"/>
   </g>
   <g id="line2d_50">
    <path d="M 155.260627 244.8 
L 155.357743 240.947771 
L 155.651468 237.095541 
L 156.129955 233.243312 
L 157.02674 228.107006 
L 158.181282 222.970701 
L 159.557039 217.834395 
L 161.546147 211.414013 
L 163.802296 204.993631 
L 166.306796 198.573248 
L 169.052946 192.152866 
L 172.041857 185.732484 
L 175.279214 179.312102 
L 178.772668 172.89172 
L 182.529587 166.471338 
L 186.554908 160.050955 
L 190.849044 153.630573 
L 195.405922 147.210191 
L 201.154844 139.505732 
L 206.183399 133.08535 
L 208.397336 130.517197 
L 210.838624 127.949045 
L 218.616935 120.244586 
L 220.554417 117.676433 
L 222.028028 115.10828 
L 223.122199 112.540127 
L 223.922362 109.971975 
L 224.496179 107.403822 
L 225.038977 103.551592 
L 225.300124 99.699363 
L 225.352607 95.847134 
L 225.172101 90.710828 
L 224.763952 85.574522 
L 224.030261 79.15414 
L 220.971097 56.040764 
L 220.034003 50.904459 
L 219.123177 47.052229 
L 217.983544 43.2 
L 217.983544 43.2 
" clip-path="url(#p8e6133525b)" style="fill: none; stroke: #a89322; stroke-opacity: 0.95; stroke-linecap: round"/>
   </g>
   <g id="line2d_51">
    <path d="M 155.71067 244.8 
L 155.811627 240.947771 
L 156.116974 237.095541 
L 156.614403 233.243312 
L 157.546704 228.107006 
L 158.746964 222.970701 
L 160.177134 217.834395 
L 161.808096 212.698089 
L 164.099362 206.277707 
L 166.650676 199.857325 
L 169.452413 193.436943 
L 172.503645 187.016561 
L 175.808527 180.596178 
L 179.373404 174.175796 
L 183.204326 167.755414 
L 187.304717 161.335032 
L 191.673083 154.91465 
L 196.300837 148.494268 
L 202.13533 140.789809 
L 207.23404 134.369427 
L 210.650345 130.517197 
L 214.521453 126.664968 
L 218.382619 122.812739 
L 220.519105 120.244586 
L 222.193423 117.676433 
L 223.458157 115.10828 
L 224.395729 112.540127 
L 225.079056 109.971975 
L 225.564621 107.403822 
L 226.011754 103.551592 
L 226.2069 99.699363 
L 226.18098 94.563057 
L 225.903425 89.426752 
L 225.282043 83.006369 
L 224.125293 74.017834 
L 221.103479 52.188535 
L 220.303977 48.336306 
L 219.299154 44.484076 
L 218.912056 43.2 
L 218.912056 43.2 
" clip-path="url(#p8e6133525b)" style="fill: none; stroke: #ac9321; stroke-opacity: 0.95; stroke-linecap: round"/>
   </g>
   <g id="line2d_52">
    <path d="M 156.220444 244.8 
L 156.325746 240.947771 
L 156.644241 237.095541 
L 157.1631 233.243312 
L 157.864539 229.391083 
L 159.050691 224.254777 
L 160.485725 219.118471 
L 162.136706 213.982166 
L 164.469377 207.561783 
L 167.075842 201.141401 
L 169.94308 194.721019 
L 173.067771 188.300637 
L 176.452258 181.880255 
L 180.101307 175.459873 
L 184.01936 169.03949 
L 188.207968 162.619108 
L 192.663292 156.198726 
L 197.373662 149.778344 
L 203.303706 142.073885 
L 208.481129 135.653503 
L 211.919438 131.801274 
L 215.744922 127.949045 
L 219.492661 124.096815 
L 221.562821 121.528662 
L 223.194512 118.96051 
L 224.435181 116.392357 
L 225.360173 113.824204 
L 226.037517 111.256051 
L 226.520801 108.687898 
L 226.968196 104.835669 
L 227.166548 100.983439 
L 227.150684 95.847134 
L 226.89166 90.710828 
L 226.297178 84.290446 
L 225.318513 76.585987 
L 221.758409 50.904459 
L 220.946052 47.052229 
L 219.925596 43.2 
L 219.925596 43.2 
" clip-path="url(#p8e6133525b)" style="fill: none; stroke: #b3941f; stroke-opacity: 0.95; stroke-linecap: round"/>
   </g>
   <g id="line2d_53">
    <path d="M 156.428736 244.8 
L 156.535812 240.947771 
L 156.859674 237.095541 
L 157.387281 233.243312 
L 158.100551 229.391083 
L 159.306712 224.254777 
L 160.765928 219.118471 
L 162.444661 213.982166 
L 164.816351 207.561783 
L 167.466042 201.141401 
L 170.380226 194.721019 
L 173.555158 188.300637 
L 176.992708 181.880255 
L 180.697043 175.459873 
L 184.671773 169.03949 
L 188.917307 162.619108 
L 193.428276 156.198726 
L 198.190822 149.778344 
L 204.174533 142.073885 
L 208.326595 136.93758 
L 211.700532 133.08535 
L 215.448505 129.233121 
L 219.238367 125.380892 
L 221.408863 122.812739 
L 223.152026 120.244586 
L 224.4918 117.676433 
L 225.4982 115.10828 
L 226.240922 112.540127 
L 226.77663 109.971975 
L 227.284367 106.119745 
L 227.527541 102.267516 
L 227.557354 97.13121 
L 227.337378 91.994904 
L 226.918134 86.858599 
L 226.175398 80.438217 
L 222.558637 53.472611 
L 221.610051 48.336306 
L 220.686295 44.484076 
L 220.32901 43.2 
L 220.32901 43.2 
" clip-path="url(#p8e6133525b)" style="fill: none; stroke: #b7941e; stroke-opacity: 0.95; stroke-linecap: round"/>
   </g>
   <g id="line2d_54">
    <path d="M 157.378575 244.8 
L 157.493725 240.947771 
L 157.84202 237.095541 
L 158.409456 233.243312 
L 159.176601 229.391083 
L 160.473867 224.254777 
L 162.043175 219.118471 
L 163.848212 213.982166 
L 165.863029 208.84586 
L 168.651367 202.425478 
L 171.722918 196.005096 
L 175.070164 189.584713 
L 178.691784 183.164331 
L 182.588736 176.743949 
L 186.760916 170.323567 
L 191.204066 163.903185 
L 195.906824 157.482803 
L 201.860503 149.778344 
L 209.135824 140.789809 
L 212.439889 136.93758 
L 216.016717 133.08535 
L 220.915321 127.949045 
L 223.024953 125.380892 
L 224.744619 122.812739 
L 226.085198 120.244586 
L 227.104285 117.676433 
L 227.864372 115.10828 
L 228.418526 112.540127 
L 228.952466 108.687898 
L 229.218553 104.835669 
L 229.276358 99.699363 
L 229.090314 94.563057 
L 228.597607 88.142675 
L 227.867471 81.722293 
L 223.910107 52.188535 
L 222.99252 47.052229 
L 222.09831 43.2 
L 222.09831 43.2 
" clip-path="url(#p8e6133525b)" style="fill: none; stroke: #c2951c; stroke-opacity: 0.95; stroke-linecap: round"/>
   </g>
   <g id="line2d_55">
    <path d="M 158.000255 244.8 
L 158.120677 240.947771 
L 158.484925 237.095541 
L 159.078372 233.243312 
L 159.880703 229.391083 
L 160.869885 225.538854 
L 162.443979 220.402548 
L 164.272856 215.266242 
L 166.326511 210.129936 
L 168.584709 204.993631 
L 171.676509 198.573248 
L 175.055752 192.152866 
L 178.717449 185.732484 
L 182.659998 179.312102 
L 186.881353 172.89172 
L 191.375573 166.471338 
L 196.129557 160.050955 
L 202.143054 152.346497 
L 209.483467 143.357962 
L 213.897854 138.221656 
L 218.690911 133.08535 
L 222.238309 129.233121 
L 224.271931 126.664968 
L 225.932368 124.096815 
L 227.23239 121.528662 
L 228.225115 118.96051 
L 228.968391 116.392357 
L 229.511963 113.824204 
L 230.037126 109.971975 
L 230.29916 106.119745 
L 230.355522 100.983439 
L 230.173532 95.847134 
L 229.698943 89.426752 
L 228.994971 83.006369 
L 227.570905 72.733758 
L 226.205837 62.461146 
L 224.698841 50.904459 
L 223.777688 45.768153 
L 223.200784 43.2 
L 223.200784 43.2 
" clip-path="url(#p8e6133525b)" style="fill: none; stroke: #c9951a; stroke-opacity: 0.95; stroke-linecap: round"/>
   </g>
   <g id="line2d_56">
    <path d="M 158.28025 244.8 
L 158.403043 240.947771 
L 158.774467 237.095541 
L 159.379613 233.243312 
L 160.197771 229.391083 
L 161.206467 225.538854 
L 162.811588 220.402548 
L 164.676414 215.266242 
L 166.770239 210.129936 
L 169.072276 204.993631 
L 172.223355 198.573248 
L 175.666123 192.152866 
L 179.394762 185.732484 
L 183.406652 179.312102 
L 187.698398 172.89172 
L 192.262259 166.471338 
L 197.082757 160.050955 
L 203.167445 152.346497 
L 210.576293 143.357962 
L 215.041942 138.221656 
L 224.291538 127.949045 
L 226.032165 125.380892 
L 227.410255 122.812739 
L 228.470944 120.244586 
L 229.270858 117.676433 
L 229.861024 115.10828 
L 230.441097 111.256051 
L 230.744453 107.403822 
L 230.843726 103.551592 
L 230.745451 98.415287 
L 230.355361 91.994904 
L 229.72964 85.574522 
L 228.728679 77.870064 
L 226.619274 62.461146 
L 225.136821 50.904459 
L 224.243541 45.768153 
L 223.684559 43.2 
L 223.684559 43.2 
" clip-path="url(#p8e6133525b)" style="fill: none; stroke: #ca941a; stroke-opacity: 0.95; stroke-linecap: round"/>
   </g>
   <g id="line2d_57">
    <path d="M 159.685718 244.8 
L 159.820377 240.947771 
L 160.227717 237.095541 
L 160.891432 233.243312 
L 161.788834 229.391083 
L 162.895243 225.538854 
L 164.655688 220.402548 
L 166.700399 215.266242 
L 168.995045 210.129936 
L 171.515942 204.993631 
L 174.247646 199.857325 
L 177.944332 193.436943 
L 181.943886 187.016561 
L 186.237741 180.596178 
L 190.81559 174.175796 
L 195.661062 167.755414 
L 201.790763 160.050955 
L 209.279339 151.06242 
L 217.043661 142.073885 
L 225.088649 133.08535 
L 227.032362 130.517197 
L 228.644333 127.949045 
L 229.927491 125.380892 
L 230.921863 122.812739 
L 231.676186 120.244586 
L 232.235082 117.676433 
L 232.78583 113.824204 
L 233.072989 109.971975 
L 233.163402 106.119745 
L 233.05981 100.983439 
L 232.67817 94.563057 
L 232.091076 88.142675 
L 231.148269 80.438217 
L 228.029593 57.324841 
L 226.89535 48.336306 
L 226.008277 43.2 
L 226.008277 43.2 
" clip-path="url(#p8e6133525b)" style="fill: none; stroke: #cd8f1d; stroke-opacity: 0.95; stroke-linecap: round"/>
   </g>
   <g id="line2d_58">
    <path d="M 159.829164 244.8 
L 159.965031 240.947771 
L 160.376026 237.095541 
L 161.045703 233.243312 
L 161.951174 229.391083 
L 163.067532 225.538854 
L 164.371223 221.686624 
L 166.366265 216.550318 
L 168.620946 211.414013 
L 171.108802 206.277707 
L 173.812297 201.141401 
L 177.478323 194.721019 
L 181.450727 188.300637 
L 185.720115 181.880255 
L 190.276082 175.459873 
L 195.102747 169.03949 
L 201.215295 161.335032 
L 208.695198 152.346497 
L 216.433892 143.357962 
L 225.572341 133.08535 
L 227.471855 130.517197 
L 229.039633 127.949045 
L 230.284358 125.380892 
L 231.247387 122.812739 
L 231.976753 120.244586 
L 232.51587 117.676433 
L 233.044248 113.824204 
L 233.315304 109.971975 
L 233.385924 104.835669 
L 233.220046 99.699363 
L 232.785365 93.278981 
L 232.009851 85.574522 
L 230.990996 77.870064 
L 228.83468 62.461146 
L 226.915117 47.052229 
L 226.236578 43.2 
L 226.236578 43.2 
" clip-path="url(#p8e6133525b)" style="fill: none; stroke: #cd8e1d; stroke-opacity: 0.95; stroke-linecap: round"/>
   </g>
   <g id="line2d_59">
    <path d="M 160.930165 244.8 
L 161.07528 240.947771 
L 161.514271 237.095541 
L 162.229613 233.243312 
L 163.196882 229.391083 
L 164.389446 225.538854 
L 165.782051 221.686624 
L 167.912769 216.550318 
L 170.319874 211.414013 
L 172.97434 206.277707 
L 175.856431 201.141401 
L 178.952926 196.005096 
L 183.11114 189.584713 
L 187.575276 183.164331 
L 192.329137 176.743949 
L 197.349951 170.323567 
L 203.678385 162.619108 
L 211.363231 153.630573 
L 220.383203 143.357962 
L 226.065224 136.93758 
L 228.089702 134.369427 
L 229.826343 131.801274 
L 231.24694 129.233121 
L 232.371397 126.664968 
L 233.240313 124.096815 
L 233.896968 121.528662 
L 234.379862 118.96051 
L 234.846435 115.10828 
L 235.074738 111.256051 
L 235.1076 106.119745 
L 234.917414 100.983439 
L 234.46712 94.563057 
L 233.703016 86.858599 
L 232.714275 79.15414 
L 230.041113 59.892994 
L 228.356263 45.768153 
L 227.941528 43.2 
L 227.941528 43.2 
" clip-path="url(#p8e6133525b)" style="fill: none; stroke: #cf8b1e; stroke-opacity: 0.95; stroke-linecap: round"/>
   </g>
   <g id="line2d_60">
    <path d="M 164.290342 244.8 
L 164.366093 242.231847 
L 164.599808 239.663694 
L 165.236252 235.811465 
L 166.19352 231.959236 
L 167.441054 228.107006 
L 168.947045 224.254777 
L 170.682048 220.402548 
L 172.620776 216.550318 
L 175.487491 211.414013 
L 178.642327 206.277707 
L 182.057648 201.141401 
L 185.712383 196.005096 
L 190.590428 189.584713 
L 195.78002 183.164331 
L 201.239512 176.743949 
L 208.067871 169.03949 
L 229.950322 144.642038 
L 231.98271 142.073885 
L 233.794182 139.505732 
L 235.337306 136.93758 
L 236.603519 134.369427 
L 237.612801 131.801274 
L 238.397989 129.233121 
L 238.993982 126.664968 
L 239.601684 122.812739 
L 239.942253 118.96051 
L 240.081576 115.10828 
L 240.035927 109.971975 
L 239.714225 103.551592 
L 239.074713 95.847134 
L 237.970595 85.574522 
L 236.776145 76.585987 
L 234.410429 59.892994 
L 233.621739 52.188535 
L 232.726004 43.2 
L 232.726004 43.2 
" clip-path="url(#p8e6133525b)" style="fill: none; stroke: #d67f23; stroke-opacity: 0.95; stroke-linecap: round"/>
   </g>
   <g id="line2d_61">
    <path d="M 166.005744 244.8 
L 166.087667 242.231847 
L 166.340435 239.663694 
L 166.75931 237.095541 
L 167.336998 234.527389 
L 168.481126 230.675159 
L 169.927817 226.82293 
L 171.643005 222.970701 
L 173.595856 219.118471 
L 175.760157 215.266242 
L 178.93831 210.129936 
L 182.414867 204.993631 
L 186.159369 199.857325 
L 190.146787 194.721019 
L 195.437185 188.300637 
L 201.021509 181.880255 
L 208.023297 174.175796 
L 229.346073 151.06242 
L 232.591639 147.210191 
L 234.568645 144.642038 
L 236.324892 142.073885 
L 237.822428 139.505732 
L 239.055377 136.93758 
L 240.042075 134.369427 
L 240.812469 131.801274 
L 241.3989 129.233121 
L 241.998239 125.380892 
L 242.334557 121.528662 
L 242.472002 117.676433 
L 242.426676 112.540127 
L 242.109954 106.119745 
L 241.477148 98.415287 
L 240.394619 88.142675 
L 239.101812 77.870064 
L 236.111844 56.040764 
L 235.214845 45.768153 
L 234.982547 43.2 
L 234.982547 43.2 
" clip-path="url(#p8e6133525b)" style="fill: none; stroke: #d97926; stroke-opacity: 0.95; stroke-linecap: round"/>
   </g>
   <g id="line2d_62">
    <path d="M 182.549657 244.8 
L 182.687543 242.231847 
L 183.113269 239.663694 
L 183.819622 237.095541 
L 184.795243 234.527389 
L 186.025536 231.959236 
L 187.493706 229.391083 
L 189.181778 226.82293 
L 191.071458 224.254777 
L 194.244873 220.402548 
L 197.774226 216.550318 
L 201.606649 212.698089 
L 207.10392 207.561783 
L 212.943746 202.425478 
L 222.105013 194.721019 
L 235.926256 183.164331 
L 241.727418 178.028025 
L 245.794202 174.175796 
L 249.531073 170.323567 
L 252.856556 166.471338 
L 254.80575 163.903185 
L 256.518854 161.335032 
L 257.987089 158.766879 
L 259.213485 156.198726 
L 260.211988 153.630573 
L 261.004039 151.06242 
L 261.614587 148.494268 
L 262.245044 144.642038 
L 262.601419 140.789809 
L 262.748231 136.93758 
L 262.704419 131.801274 
L 262.385592 125.380892 
L 261.764918 117.676433 
L 260.58718 106.119745 
L 255.989271 65.029299 
L 253.681209 48.336306 
L 253.456008 44.484076 
L 253.421184 43.2 
L 253.421184 43.2 
" clip-path="url(#p8e6133525b)" style="fill: none; stroke: #b1283e; stroke-opacity: 0.95; stroke-linecap: round"/>
   </g>
  </g>
 </g>
 <defs>
  <clipPath id="p8e6133525b">
   <rect x="0" y="0" width="288" height="288"/>
  </clipPath>
 </defs>
</svg>
